Patient4_TMGait_0pt6_02_right_21_EMG.mot
version=1
nRows=23
nColumns=33
inDegrees=no
endheader
time	1LAddLong	2LGlutMax	3LGlutMed	4LIliopsoas	5LSemiMemb	6LBicFemLong	7LRecFem	8LVastMed	9LVastLat	10LGasMed	11LTibAnt	12lTibPost	13LPeroneusLong	14LSol	15LExtDigLong	16LFlexDigLong	17RAddLong	18RGlutMax	19RGlutMed	20RIliopsoas	21RSemiMemb	22RBicFemLong	23RRecFem	24RVastMed	25RVastLat	26RGasMed	27RTibAnt	28RTibPost	29RPeroneusLong	30RSol	31RExtDigLong	32RFlexDigLong
26.458	0.013123	0.051727	0.022278	0.016479	0.015259	-0.005035	-0.11704	0.011597	0.18219	0.063171	0.017548	-0.004272	-0.21408	-0.095062	0.063171	-0.004272	-0.03479	-0.078125	-0.13077	-0.12817	-0.001678	-0.08194	-0.032501	0.005646	0.021515	-0.019379	0.59753	-0.003357	0.46432	-0.081177	-0.006561	0.008545
26.459	0.022888	0.047913	0.053101	0.017548	0.014954	-0.019836	-0.16434	-0.002136	0.33157	0.097656	0.043793	-0.005035	-0.017853	-0.042725	0.10025	-0.005951	-0.037079	-0.081482	-0.037537	-0.16525	-0.1622	0.015411	-0.023956	0.056458	0.025787	-0.0177	0.37628	-0.005951	0.25101	-0.095825	-0.00061	0.002441
26.46	0.014496	0.02182	-0.003052	0.020447	0.010529	0.004578	-0.030212	-0.027466	0.2977	0.072327	0.028229	-0.008392	0.31662	0.012207	0.079193	0.005646	-0.01236	-0.068817	-0.06073	-0.010834	-0.2124	0.055084	0.053558	-0.071716	0.032196	-0.018311	0.20935	-0.003662	-0.27863	-0.066833	-0.001068	0.001984
26.461	-0.001373	0.028381	0.005493	-0.001678	-0.000916	0.029449	0.13168	-0.011597	0.21561	0.055542	-0.035706	-0.008087	0.22614	0.058899	0.037537	-0.005951	-0.036469	-0.084991	0.002136	0.18219	-0.023193	-0.039673	0.033569	-0.026703	0.016327	-0.018921	0.040741	-0.006561	-0.47211	-0.063934	-0.001373	-0.000458
26.462	-0.007477	0.034332	0.006256	0.012054	-0.003052	0.006256	0.12909	0.016479	0.13596	0.054169	-0.020905	-0.009766	-0.22308	0.07309	0.091553	0.000916	-0.014191	-0.11795	0.069733	0.12863	-0.062561	0.10254	0.036316	-0.046997	-0.00061	-0.020752	-0.16556	-0.003357	-0.23697	-0.059662	-0.004425	-0.000153
26.463	-0.001526	0.027313	-0.024414	0.050049	0.008698	-0.014038	0.012512	0.007782	0.13718	0.026093	0.11871	-0.003204	-0.48691	0.098267	0.29098	0.024567	-0.006256	-0.1503	-0.020752	-0.012207	-0.049438	0.21118	0.088348	-0.071869	-0.002289	-0.011597	-0.086365	-0.009918	0.17639	-0.08255	-0.004578	0.010223
26.464	0.001678	0.01709	-0.12497	0.036469	0.021057	-0.016479	0.005341	0.007477	0.15182	-0.000305	0.23895	-0.00412	0.30609	0.04364	0.32242	0.009918	-0.057068	-0.12116	0.009613	-0.2005	0.23422	0.30914	0.015259	-0.016479	-0.001678	-0.014954	-0.080872	-0.007935	0.29892	-0.11932	-0.006561	0.001831
26.465	0.006256	-0.023804	-0.13763	0.028687	0.04303	-0.013885	0.003662	0.003815	0.14847	-0.053406	0.26581	-0.002899	0.40558	0.037689	0.090637	0.012512	-0.08667	-0.14374	0.034637	-0.17044	0.18951	0.13992	0.022736	-0.017853	0.018616	-0.013428	-0.13473	-0.002441	0.22659	-0.16571	-0.003052	0.007477
26.466	0.007782	-0.023193	-0.1355	0.036316	0.03418	0.00824	-0.095215	0.002289	0.18509	-0.084991	-0.071259	-0.005188	0.25635	-0.004425	0.10498	0.006256	-0.077972	-0.095367	-0.034027	-0.013275	0.005493	0.1059	-0.007782	-0.005341	0.000763	-0.019531	-0.046234	-0.003967	-0.033417	-0.12802	-0.00824	0.00885
26.467	0.013275	-0.002594	-0.12009	0.011292	0.022736	0.035095	-0.01236	0.002289	0.11993	-0.06134	-0.32242	-0.005188	-0.007019	-0.028076	0.029755	-0.000916	-0.048676	-0.1297	-0.065765	0.12207	-0.012207	0.19989	-0.000153	-0.050049	0.018463	-0.018463	-0.15472	-0.00885	-0.03952	0.035095	-0.005493	0.00351
26.468	0.001831	0.003815	-0.070953	0.009155	0.020447	0.016022	0.062561	-0.000305	0.077667	-0.068054	-0.17883	-0.005341	-0.18005	-0.077057	-0.18951	-0.012665	-0.041656	-0.080872	0.009766	0.22888	-0.054321	0.24597	-0.014038	-0.091095	0.023499	-0.029907	-0.15701	-0.010223	-0.15442	0.14297	-0.003967	0.003815
26.469	0.008087	0.013733	-0.041656	0.005646	0.014343	-0.018158	0.047913	0.011597	0.076294	-0.069427	-0.072479	-0.009613	-0.13672	-0.029449	-0.28885	-0.007172	-0.024872	-0.093994	0.02533	0.2652	-0.085602	0.19623	0.026245	-0.072021	0.019379	-0.032806	-0.00824	-0.00885	-0.11185	0.13962	-0.001526	0.002747
26.47	0.009918	0.044556	0.003357	-0.01709	0.029602	-0.027618	0.098419	0.008698	0.079041	-0.031433	0.03067	-0.008087	-0.19455	-0.000153	-0.04837	-0.003967	0.00351	-0.047607	-0.002594	0.22385	-0.11963	0.11246	0.006104	-0.079651	0.013733	-0.04425	0.13916	-0.008392	-0.005951	0.15091	-0.00061	-0.000458
26.471	0.007172	-0.005188	0.007782	0.003815	0.028839	-0.000305	0.14236	0.004272	0.074158	-0.045319	0.087585	0.003662	-0.11017	-0.04425	-0.17029	-0.014343	0.004425	-0.075073	-0.10147	0.06897	-0.010223	0.036163	-0.002289	-0.070496	0.009003	-0.059509	0.15488	-0.007477	-0.11963	0.13321	-0.00061	0.003357
26.472	0.018463	-0.043182	-0.06958	0.011444	0.003662	0.016022	0.1535	0.005341	0.048218	-0.055847	0.0383	-0.00412	-0.011749	-0.10849	-0.074921	0.014954	0.001221	-0.088654	-0.11383	0.018311	-0.10162	0.016174	-0.026398	-0.027924	0.020447	-0.074615	0.11658	-0.004578	-0.1268	0.11108	-0.000916	0.005798
26.473	0.006409	-0.018768	-0.10422	0.00473	-0.00473	0.030518	0.1471	0.006256	0.03479	-0.068054	-0.045319	-0.005341	-0.020447	-0.13214	-0.005493	0.005951	0.007629	-0.075836	-0.11307	-0.021057	0.024414	-0.031586	-0.014496	-0.023956	0.030365	-0.084229	-0.002594	-0.006256	0.048523	0.087128	-0.00061	0.007019
26.474	0.001831	-0.015717	-0.035858	-0.016327	0.022736	0.041199	0.17212	-0.003815	0.024414	-0.082092	-0.084534	-0.002594	-0.030365	-0.12741	0.046997	0.00473	0.020142	-0.041656	-0.11673	-0.023041	0.15305	-0.14694	0.019073	-0.035858	0.01236	-0.10162	-0.024719	-0.004578	0.027924	0.079346	-0.000153	-0.000763
26.475	-0.001678	0.006104	0.077057	-0.019684	0.060577	0.046692	0.15854	0.007324	-0.00473	-0.087585	-0.035553	0.000153	-0.089874	-0.083618	0.065002	0.017548	0.046692	0.004272	-0.12161	-0.04364	0.11017	-0.16419	-0.003815	-0.084991	0.002747	-0.12344	0.014038	-0.002747	-0.076752	0.039825	-0.003357	-0.005951
26.476	0.002747	-0.032349	0.091705	-0.012817	0.058289	0.052948	0.066376	0.010986	-0.006714	-0.047455	0.01236	0.001984	-0.10147	-0.049744	0.0914	-0.000153	0.075836	-0.000916	-0.094757	-0.014343	0.02655	-0.13077	0.008545	-0.12268	0.004883	-0.11841	0.027466	-0.007477	-0.11093	0.002289	-0.000916	-0.006409
26.477	0.01236	-0.050354	0.072784	0.018463	0.044861	0.016327	-0.001221	0.00824	0.024719	-0.00946	0.041962	0.001984	-0.11398	-0.026398	0.04837	-0.003815	0.097198	-0.003815	-0.215	0.003967	-0.11185	-0.007019	-0.001984	-0.11734	0.002289	-0.090942	0.045471	-0.001678	-0.099945	0.002594	0.00061	-0.01297
26.478	0.009613	-0.023651	0.057526	0.019531	0.037994	0.005188	-0.00946	-0.002899	0.004272	0.00946	0.035553	0.004425	-0.16632	-0.068359	0.029449	0.005798	0.09964	0.01236	-0.0177	-0.005035	-0.14023	0.044403	-0.016174	-0.09964	0.001678	-0.014648	0.086517	-0.004578	0.019836	-0.027771	-0.001678	-0.011292
26.479	-0.00473	-0.041351	0.005798	0.020752	0.003815	0.018463	0.062408	-0.001831	-0.007782	-0.018311	0.003052	0.010223	-0.094757	-0.075684	0.045319	0.002594	0.095978	-0.047913	0.38696	0.009308	0.013733	-0.069275	-0.037842	-0.13534	0	0.058899	0.089417	-0.005341	0.28625	-0.027313	-0.000763	-0.014343
26.48	-0.003662	-0.066071	-0.040436	0.035248	-0.034637	0.033569	0.089417	0.011902	-0.020599	-0.002594	0.013885	0.000305	-0.016632	-0.04364	0.042419	0.020905	0.076294	-0.10025	0.3894	-0.013275	0.23758	-0.1268	-0.04364	-0.095673	0.019226	0.12146	0.025787	-0.006866	0.33493	-0.048218	-0.001221	-0.007019
